<svg xmlns="http://www.w3.org/2000/svg" xmlns:xlink="http://www.w3.org/1999/xlink" version="1.1" class="marks" width="909" height="628" viewBox="0 0 909 628"><rect width="909" height="628" fill="white"/><g fill="none" stroke-miterlimit="10" transform="translate(54,40)"><g class="mark-group role-frame root" role="graphics-object" aria-roledescription="group mark container"><g transform="translate(0,0)"><path class="background" aria-hidden="true" d="M0,0h850v400h-850Z" stroke="#ddd" stroke-width="0"/><g><g class="mark-group role-axis" role="graphics-symbol" aria-roledescription="axis" aria-label="X-axis titled 'Top 50 Features by Importance' for a discrete scale with 50 values: volatility_dch_100, trend_psar_up_indicator_20, trend_ema_fast_100, momentum_stoch_rsi_k_200, momentum_wr_20, ending with trend_vortex_ind_neg_50"><g transform="translate(0.5,400.5)"><path class="background" aria-hidden="true" d="M0,0h0v0h0Z" pointer-events="none"/><g><g class="mark-rule role-axis-tick" pointer-events="none"><line transform="translate(8,0)" x2="0" y2="0" stroke="#888" stroke-width="1" opacity="1"/><line transform="translate(25,0)" x2="0" y2="0" stroke="#888" stroke-width="1" opacity="1"/><line transform="translate(42,0)" x2="0" y2="0" stroke="#888" stroke-width="1" opacity="1"/><line transform="translate(59,0)" x2="0" y2="0" stroke="#888" stroke-width="1" opacity="1"/><line transform="translate(76,0)" x2="0" y2="0" stroke="#888" stroke-width="1" opacity="1"/><line transform="translate(93,0)" x2="0" y2="0" stroke="#888" stroke-width="1" opacity="1"/><line transform="translate(110,0)" x2="0" y2="0" stroke="#888" stroke-width="1" opacity="1"/><line transform="translate(127,0)" x2="0" y2="0" stroke="#888" stroke-width="1" opacity="1"/><line transform="translate(144,0)" x2="0" y2="0" stroke="#888" stroke-width="1" opacity="1"/><line transform="translate(161,0)" x2="0" y2="0" stroke="#888" stroke-width="1" opacity="1"/><line transform="translate(178,0)" x2="0" y2="0" stroke="#888" stroke-width="1" opacity="1"/><line transform="translate(195,0)" x2="0" y2="0" stroke="#888" stroke-width="1" opacity="1"/><line transform="translate(212,0)" x2="0" y2="0" stroke="#888" stroke-width="1" opacity="1"/><line transform="translate(229,0)" x2="0" y2="0" stroke="#888" stroke-width="1" opacity="1"/><line transform="translate(246,0)" x2="0" y2="0" stroke="#888" stroke-width="1" opacity="1"/><line transform="translate(263,0)" x2="0" y2="0" stroke="#888" stroke-width="1" opacity="1"/><line transform="translate(280,0)" x2="0" y2="0" stroke="#888" stroke-width="1" opacity="1"/><line transform="translate(297,0)" x2="0" y2="0" stroke="#888" stroke-width="1" opacity="1"/><line transform="translate(314,0)" x2="0" y2="0" stroke="#888" stroke-width="1" opacity="1"/><line transform="translate(331,0)" x2="0" y2="0" stroke="#888" stroke-width="1" opacity="1"/><line transform="translate(348,0)" x2="0" y2="0" stroke="#888" stroke-width="1" opacity="1"/><line transform="translate(365,0)" x2="0" y2="0" stroke="#888" stroke-width="1" opacity="1"/><line transform="translate(382,0)" x2="0" y2="0" stroke="#888" stroke-width="1" opacity="1"/><line transform="translate(399,0)" x2="0" y2="0" stroke="#888" stroke-width="1" opacity="1"/><line transform="translate(416,0)" x2="0" y2="0" stroke="#888" stroke-width="1" opacity="1"/><line transform="translate(433,0)" x2="0" y2="0" stroke="#888" stroke-width="1" opacity="1"/><line transform="translate(450,0)" x2="0" y2="0" stroke="#888" stroke-width="1" opacity="1"/><line transform="translate(467,0)" x2="0" y2="0" stroke="#888" stroke-width="1" opacity="1"/><line transform="translate(484,0)" x2="0" y2="0" stroke="#888" stroke-width="1" opacity="1"/><line transform="translate(501,0)" x2="0" y2="0" stroke="#888" stroke-width="1" opacity="1"/><line transform="translate(518,0)" x2="0" y2="0" stroke="#888" stroke-width="1" opacity="1"/><line transform="translate(535,0)" x2="0" y2="0" stroke="#888" stroke-width="1" opacity="1"/><line transform="translate(552,0)" x2="0" y2="0" stroke="#888" stroke-width="1" opacity="1"/><line transform="translate(569,0)" x2="0" y2="0" stroke="#888" stroke-width="1" opacity="1"/><line transform="translate(586,0)" x2="0" y2="0" stroke="#888" stroke-width="1" opacity="1"/><line transform="translate(603,0)" x2="0" y2="0" stroke="#888" stroke-width="1" opacity="1"/><line transform="translate(620,0)" x2="0" y2="0" stroke="#888" stroke-width="1" opacity="1"/><line transform="translate(637,0)" x2="0" y2="0" stroke="#888" stroke-width="1" opacity="1"/><line transform="translate(654,0)" x2="0" y2="0" stroke="#888" stroke-width="1" opacity="1"/><line transform="translate(671,0)" x2="0" y2="0" stroke="#888" stroke-width="1" opacity="1"/><line transform="translate(688,0)" x2="0" y2="0" stroke="#888" stroke-width="1" opacity="1"/><line transform="translate(705,0)" x2="0" y2="0" stroke="#888" stroke-width="1" opacity="1"/><line transform="translate(722,0)" x2="0" y2="0" stroke="#888" stroke-width="1" opacity="1"/><line transform="translate(739,0)" x2="0" y2="0" stroke="#888" stroke-width="1" opacity="1"/><line transform="translate(756,0)" x2="0" y2="0" stroke="#888" stroke-width="1" opacity="1"/><line transform="translate(773,0)" x2="0" y2="0" stroke="#888" stroke-width="1" opacity="1"/><line transform="translate(790,0)" x2="0" y2="0" stroke="#888" stroke-width="1" opacity="1"/><line transform="translate(807,0)" x2="0" y2="0" stroke="#888" stroke-width="1" opacity="1"/><line transform="translate(824,0)" x2="0" y2="0" stroke="#888" stroke-width="1" opacity="1"/><line transform="translate(841,0)" x2="0" y2="0" stroke="#888" stroke-width="1" opacity="1"/></g><g class="mark-text role-axis-label" pointer-events="none"><text text-anchor="end" transform="translate(8.000000000000023,2) rotate(300) translate(0,3)" font-family="sans-serif" font-size="11px" fill="#000" opacity="1">volatility_dch_100</text><text text-anchor="end" transform="translate(25.00000000000002,2) rotate(300) translate(0,3)" font-family="sans-serif" font-size="11px" fill="#000" opacity="1">trend_psar_up_indicator_20</text><text text-anchor="end" transform="translate(42.00000000000002,2) rotate(300) translate(0,3)" font-family="sans-serif" font-size="11px" fill="#000" opacity="1">trend_ema_fast_100</text><text text-anchor="end" transform="translate(59.00000000000002,2) rotate(300) translate(0,3)" font-family="sans-serif" font-size="11px" fill="#000" opacity="1">momentum_stoch_rsi_k_200</text><text text-anchor="end" transform="translate(76.00000000000003,2) rotate(300) translate(0,3)" font-family="sans-serif" font-size="11px" fill="#000" opacity="1">momentum_wr_20</text><text text-anchor="end" transform="translate(93.00000000000003,2) rotate(300) translate(0,3)" font-family="sans-serif" font-size="11px" fill="#000" opacity="1">volatility_bbl_200</text><text text-anchor="end" transform="translate(110.00000000000003,2) rotate(300) translate(0,3)" font-family="sans-serif" font-size="11px" fill="#000" opacity="1">trend_macd_signal_10</text><text text-anchor="end" transform="translate(127.00000000000003,2) rotate(300) translate(0,3)" font-family="sans-serif" font-size="11px" fill="#000" opacity="1">momentum_rsi_200</text><text text-anchor="end" transform="translate(144.00000000000003,2) rotate(300) translate(0,3)" font-family="sans-serif" font-size="11px" fill="#000" opacity="1">momentum_stoch_5</text><text text-anchor="end" transform="translate(161.00000000000003,2) rotate(300) translate(0,3)" font-family="sans-serif" font-size="11px" fill="#000" opacity="1">volatility_dcp_200</text><text text-anchor="end" transform="translate(178.00000000000003,2) rotate(300) translate(0,3)" font-family="sans-serif" font-size="11px" fill="#000" opacity="1">momentum_kama_10</text><text text-anchor="end" transform="translate(195.00000000000003,2) rotate(300) translate(0,3)" font-family="sans-serif" font-size="11px" fill="#000" opacity="1">momentum_stoch_rsi_d_20</text><text text-anchor="end" transform="translate(212.00000000000003,2) rotate(300) translate(0,3)" font-family="sans-serif" font-size="11px" fill="#000" opacity="1">momentum_rsi_20</text><text text-anchor="end" transform="translate(229.00000000000003,2) rotate(300) translate(0,3)" font-family="sans-serif" font-size="11px" fill="#000" opacity="1">volume_cmf_200</text><text text-anchor="end" transform="translate(246.00000000000003,2) rotate(300) translate(0,3)" font-family="sans-serif" font-size="11px" fill="#000" opacity="1">volume_vwap_200</text><text text-anchor="end" transform="translate(263,2) rotate(300) translate(0,3)" font-family="sans-serif" font-size="11px" fill="#000" opacity="1">trend_psar_down_indicator_20</text><text text-anchor="end" transform="translate(280,2) rotate(300) translate(0,3)" font-family="sans-serif" font-size="11px" fill="#000" opacity="1">volatility_kchi_200</text><text text-anchor="end" transform="translate(297,2) rotate(300) translate(0,3)" font-family="sans-serif" font-size="11px" fill="#000" opacity="1">volatility_kcw_20</text><text text-anchor="end" transform="translate(314,2) rotate(300) translate(0,3)" font-family="sans-serif" font-size="11px" fill="#000" opacity="1">trend_kst_diff_50</text><text text-anchor="end" transform="translate(331,2) rotate(300) translate(0,3)" font-family="sans-serif" font-size="11px" fill="#000" opacity="1">trend_psar_up_indicator_5</text><text text-anchor="end" transform="translate(348,2) rotate(300) translate(0,3)" font-family="sans-serif" font-size="11px" fill="#000" opacity="1">volume_fi_200</text><text text-anchor="end" transform="translate(365,2) rotate(300) translate(0,3)" font-family="sans-serif" font-size="11px" fill="#000" opacity="1">trend_psar_up_indicator_50</text><text text-anchor="end" transform="translate(382,2) rotate(300) translate(0,3)" font-family="sans-serif" font-size="11px" fill="#000" opacity="1">others_dlr_10</text><text text-anchor="end" transform="translate(399,2) rotate(300) translate(0,3)" font-family="sans-serif" font-size="11px" fill="#000" opacity="1">momentum_roc_200</text><text text-anchor="end" transform="translate(416,2) rotate(300) translate(0,3)" font-family="sans-serif" font-size="11px" fill="#000" opacity="1">volume_sma_em_5</text><text text-anchor="end" transform="translate(433,2) rotate(300) translate(0,3)" font-family="sans-serif" font-size="11px" fill="#000" opacity="1">volatility_dcw</text><text text-anchor="end" transform="translate(450,2) rotate(300) translate(0,3)" font-family="sans-serif" font-size="11px" fill="#000" opacity="1">momentum_stoch_rsi</text><text text-anchor="end" transform="translate(467,2) rotate(300) translate(0,3)" font-family="sans-serif" font-size="11px" fill="#000" opacity="1">others_dr</text><text text-anchor="end" transform="translate(484,2) rotate(300) translate(0,3)" font-family="sans-serif" font-size="11px" fill="#000" opacity="1">trend_vortex_ind_neg_100</text><text text-anchor="end" transform="translate(501,2) rotate(300) translate(0,3)" font-family="sans-serif" font-size="11px" fill="#000" opacity="1">momentum_rsi</text><text text-anchor="end" transform="translate(518,2) rotate(300) translate(0,3)" font-family="sans-serif" font-size="11px" fill="#000" opacity="1">profit_loss_from_ordinary_activitie…</text><text text-anchor="end" transform="translate(535,2) rotate(300) translate(0,3)" font-family="sans-serif" font-size="11px" fill="#000" opacity="1">volume_em</text><text text-anchor="end" transform="translate(552,2) rotate(300) translate(0,3)" font-family="sans-serif" font-size="11px" fill="#000" opacity="1">trend_visual_ichimoku_a_100</text><text text-anchor="end" transform="translate(569,2) rotate(300) translate(0,3)" font-family="sans-serif" font-size="11px" fill="#000" opacity="1">trend_aroon_up</text><text text-anchor="end" transform="translate(586,2) rotate(300) translate(0,3)" font-family="sans-serif" font-size="11px" fill="#000" opacity="1">volatility_kch_100</text><text text-anchor="end" transform="translate(603,2) rotate(300) translate(0,3)" font-family="sans-serif" font-size="11px" fill="#000" opacity="1">volume_fi</text><text text-anchor="end" transform="translate(620,2) rotate(300) translate(0,3)" font-family="sans-serif" font-size="11px" fill="#000" opacity="1">trend_adx_5</text><text text-anchor="end" transform="translate(637,2) rotate(300) translate(0,3)" font-family="sans-serif" font-size="11px" fill="#000" opacity="1">trend_ichimoku_conv_100</text><text text-anchor="end" transform="translate(654,2) rotate(300) translate(0,3)" font-family="sans-serif" font-size="11px" fill="#000" opacity="1">others_dr_10</text><text text-anchor="end" transform="translate(671,2) rotate(300) translate(0,3)" font-family="sans-serif" font-size="11px" fill="#000" opacity="1">others_dlr_100</text><text text-anchor="end" transform="translate(688,2) rotate(300) translate(0,3)" font-family="sans-serif" font-size="11px" fill="#000" opacity="1">trend_kst_diff_5</text><text text-anchor="end" transform="translate(705,2) rotate(300) translate(0,3)" font-family="sans-serif" font-size="11px" fill="#000" opacity="1">volume_vpt_5</text><text text-anchor="end" transform="translate(722,2) rotate(300) translate(0,3)" font-family="sans-serif" font-size="11px" fill="#000" opacity="1">volume_mfi_200</text><text text-anchor="end" transform="translate(739,2) rotate(300) translate(0,3)" font-family="sans-serif" font-size="11px" fill="#000" opacity="1">trend_aroon_ind_20</text><text text-anchor="end" transform="translate(756,2) rotate(300) translate(0,3)" font-family="sans-serif" font-size="11px" fill="#000" opacity="1">momentum_wr_50</text><text text-anchor="end" transform="translate(773,2) rotate(300) translate(0,3)" font-family="sans-serif" font-size="11px" fill="#000" opacity="1">volatility_bbw_200</text><text text-anchor="end" transform="translate(790,2) rotate(300) translate(0,3)" font-family="sans-serif" font-size="11px" fill="#000" opacity="1">volatility_bbp_10</text><text text-anchor="end" transform="translate(807,2) rotate(300) translate(0,3)" font-family="sans-serif" font-size="11px" fill="#000" opacity="1">trend_psar_down_indicator_50</text><text text-anchor="end" transform="translate(824,2) rotate(300) translate(0,3)" font-family="sans-serif" font-size="11px" fill="#000" opacity="1">momentum_stoch_200</text><text text-anchor="end" transform="translate(841,2) rotate(300) translate(0,3)" font-family="sans-serif" font-size="11px" fill="#000" opacity="1">trend_vortex_ind_neg_50</text></g><g class="mark-text role-axis-title" pointer-events="none"><text text-anchor="middle" transform="translate(425,178.57175485599197)" font-family="sans-serif" font-size="20px" font-weight="bold" fill="#000" opacity="1">Top 50 Features by Importance</text></g></g><path class="foreground" aria-hidden="true" d="" pointer-events="none" display="none"/></g></g><g class="mark-group role-axis" role="graphics-symbol" aria-roledescription="axis" aria-label="Y-axis titled 'Average Tree SHAP Values' for a linear scale with values from 0.00 to 0.24"><g transform="translate(0.5,0.5)"><path class="background" aria-hidden="true" d="M0,0h0v0h0Z" pointer-events="none"/><g><g class="mark-rule role-axis-tick" pointer-events="none"><line transform="translate(0,400)" x2="0" y2="0" stroke="#888" stroke-width="1" opacity="1"/><line transform="translate(0,367)" x2="0" y2="0" stroke="#888" stroke-width="1" opacity="1"/><line transform="translate(0,333)" x2="0" y2="0" stroke="#888" stroke-width="1" opacity="1"/><line transform="translate(0,300)" x2="0" y2="0" stroke="#888" stroke-width="1" opacity="1"/><line transform="translate(0,267)" x2="0" y2="0" stroke="#888" stroke-width="1" opacity="1"/><line transform="translate(0,233)" x2="0" y2="0" stroke="#888" stroke-width="1" opacity="1"/><line transform="translate(0,200)" x2="0" y2="0" stroke="#888" stroke-width="1" opacity="1"/><line transform="translate(0,167)" x2="0" y2="0" stroke="#888" stroke-width="1" opacity="1"/><line transform="translate(0,133)" x2="0" y2="0" stroke="#888" stroke-width="1" opacity="1"/><line transform="translate(0,100)" x2="0" y2="0" stroke="#888" stroke-width="1" opacity="1"/><line transform="translate(0,67)" x2="0" y2="0" stroke="#888" stroke-width="1" opacity="1"/><line transform="translate(0,33)" x2="0" y2="0" stroke="#888" stroke-width="1" opacity="1"/><line transform="translate(0,0)" x2="0" y2="0" stroke="#888" stroke-width="1" opacity="1"/></g><g class="mark-text role-axis-label" pointer-events="none"><text text-anchor="end" transform="translate(-2,403)" font-family="sans-serif" font-size="11px" fill="#000" opacity="1">0.00</text><text text-anchor="end" transform="translate(-2,369.66666666666663)" font-family="sans-serif" font-size="11px" fill="#000" opacity="1">0.02</text><text text-anchor="end" transform="translate(-2,336.3333333333333)" font-family="sans-serif" font-size="11px" fill="#000" opacity="1">0.04</text><text text-anchor="end" transform="translate(-2,303)" font-family="sans-serif" font-size="11px" fill="#000" opacity="1">0.06</text><text text-anchor="end" transform="translate(-2,269.66666666666663)" font-family="sans-serif" font-size="11px" fill="#000" opacity="1">0.08</text><text text-anchor="end" transform="translate(-2,236.33333333333331)" font-family="sans-serif" font-size="11px" fill="#000" opacity="1">0.10</text><text text-anchor="end" transform="translate(-2,203)" font-family="sans-serif" font-size="11px" fill="#000" opacity="1">0.12</text><text text-anchor="end" transform="translate(-2,169.66666666666666)" font-family="sans-serif" font-size="11px" fill="#000" opacity="1">0.14</text><text text-anchor="end" transform="translate(-2,136.33333333333331)" font-family="sans-serif" font-size="11px" fill="#000" opacity="1">0.16</text><text text-anchor="end" transform="translate(-2,103)" font-family="sans-serif" font-size="11px" fill="#000" opacity="1">0.18</text><text text-anchor="end" transform="translate(-2,69.66666666666666)" font-family="sans-serif" font-size="11px" fill="#000" opacity="1">0.20</text><text text-anchor="end" transform="translate(-2,36.3333333333333)" font-family="sans-serif" font-size="11px" fill="#000" opacity="1">0.22</text><text text-anchor="end" transform="translate(-2,3)" font-family="sans-serif" font-size="11px" fill="#000" opacity="1">0.24</text></g><g class="mark-text role-axis-title" pointer-events="none"><text text-anchor="middle" transform="translate(-27.4091796875,200) rotate(-90) translate(0,-4)" font-family="sans-serif" font-size="20px" font-weight="bold" fill="#000" opacity="1">Average Tree SHAP Values</text></g></g><path class="foreground" aria-hidden="true" d="" pointer-events="none" display="none"/></g></g><g class="mark-rect role-mark marks" role="graphics-object" aria-roledescription="rect mark container"><path aria-label="feature: volatility_dch_100; transform_shap: 0.223155762095" role="graphics-symbol" aria-roledescription="bar" d="M1.000000000000023,28.0737298411577h15v371.92627015884227h-15Z" fill="rgb(12, 78, 148)"/><path aria-label="feature: trend_psar_up_indicator_20; transform_shap: 0.183431323626" role="graphics-symbol" aria-roledescription="bar" d="M18.00000000000002,94.2811272900324h15v305.7188727099676h-15Z" fill="rgb(13, 81, 152)"/><path aria-label="feature: trend_ema_fast_100; transform_shap: 0.179475670314" role="graphics-symbol" aria-roledescription="bar" d="M35.00000000000002,100.87388280929379h15v299.1261171907062h-15Z" fill="rgb(15, 85, 156)"/><path aria-label="feature: momentum_stoch_rsi_k_200; transform_shap: 0.149283213114" role="graphics-symbol" aria-roledescription="bar" d="M52.00000000000002,151.19464480968938h15v248.80535519031062h-15Z" fill="rgb(16, 88, 160)"/><path aria-label="feature: momentum_wr_20; transform_shap: 0.149188120041" role="graphics-symbol" aria-roledescription="bar" d="M69.00000000000003,151.3531332647049h15v248.6468667352951h-15Z" fill="rgb(18, 92, 164)"/><path aria-label="feature: volatility_bbl_200; transform_shap: 0.136283974797" role="graphics-symbol" aria-roledescription="bar" d="M86.00000000000003,172.86004200478757h15v227.13995799521243h-15Z" fill="rgb(20, 95, 166)"/><path aria-label="feature: trend_macd_signal_10; transform_shap: 0.133445356818" role="graphics-symbol" aria-roledescription="bar" d="M103.00000000000003,177.59107196961628h15v222.40892803038372h-15Z" fill="rgb(23, 99, 169)"/><path aria-label="feature: momentum_rsi_200; transform_shap: 0.130579251235" role="graphics-symbol" aria-roledescription="bar" d="M120.00000000000003,182.3679146082624h15v217.6320853917376h-15Z" fill="rgb(26, 103, 172)"/><path aria-label="feature: momentum_stoch_5; transform_shap: 0.120984647497" role="graphics-symbol" aria-roledescription="bar" d="M137.00000000000003,198.3589208390179h15v201.6410791609821h-15Z" fill="rgb(29, 107, 175)"/><path aria-label="feature: volatility_dcp_200; transform_shap: 0.112995743329" role="graphics-symbol" aria-roledescription="bar" d="M154.00000000000003,211.67376111785302h15v188.32623888214698h-15Z" fill="rgb(31, 110, 177)"/><path aria-label="feature: momentum_kama_10; transform_shap: 0.106650947319" role="graphics-symbol" aria-roledescription="bar" d="M171.00000000000003,222.24842113441588h15v177.75157886558412h-15Z" fill="rgb(35, 114, 180)"/><path aria-label="feature: momentum_stoch_rsi_d_20; transform_shap: 0.106247351083" role="graphics-symbol" aria-roledescription="bar" d="M188.00000000000003,222.92108152898606h15v177.07891847101394h-15Z" fill="rgb(38, 117, 182)"/><path aria-label="feature: momentum_rsi_20; transform_shap: 0.103071687986" role="graphics-symbol" aria-roledescription="bar" d="M205.00000000000003,228.21385335684062h15v171.78614664315938h-15Z" fill="rgb(41, 121, 184)"/><path aria-label="feature: volume_cmf_200; transform_shap: 0.101065921761" role="graphics-symbol" aria-roledescription="bar" d="M222.00000000000003,231.55679706456942h15v168.44320293543058h-15Z" fill="rgb(45, 124, 186)"/><path aria-label="feature: volume_vwap_200; transform_shap: 0.0989271994275" role="graphics-symbol" aria-roledescription="bar" d="M239.00000000000003,235.12133428742192h15v164.87866571257808h-15Z" fill="rgb(48, 128, 188)"/><path aria-label="feature: trend_psar_down_indicator_20; transform_shap: 0.094304895419" role="graphics-symbol" aria-roledescription="bar" d="M256,242.8251743016359h15v157.1748256983641h-15Z" fill="rgb(52, 131, 190)"/><path aria-label="feature: volatility_kchi_200; transform_shap: 0.0923380574456" role="graphics-symbol" aria-roledescription="bar" d="M273,246.10323759066492h15v153.89676240933508h-15Z" fill="rgb(56, 135, 192)"/><path aria-label="feature: volatility_kcw_20; transform_shap: 0.0920829001917" role="graphics-symbol" aria-roledescription="bar" d="M290,246.52849968048454h15v153.47150031951546h-15Z" fill="rgb(60, 138, 194)"/><path aria-label="feature: trend_kst_diff_50; transform_shap: 0.0920492411675" role="graphics-symbol" aria-roledescription="bar" d="M307,246.58459805419923h15v153.41540194580077h-15Z" fill="rgb(64, 141, 196)"/><path aria-label="feature: trend_psar_up_indicator_5; transform_shap: 0.0911239151467" role="graphics-symbol" aria-roledescription="bar" d="M324,248.12680808889564h15v151.87319191110436h-15Z" fill="rgb(67, 145, 197)"/><path aria-label="feature: volume_fi_200; transform_shap: 0.0890960148245" role="graphics-symbol" aria-roledescription="bar" d="M341,251.5066419590919h15v148.4933580409081h-15Z" fill="rgb(72, 148, 199)"/><path aria-label="feature: trend_psar_up_indicator_50; transform_shap: 0.0878027150651" role="graphics-symbol" aria-roledescription="bar" d="M358,253.66214155823005h15v146.33785844176995h-15Z" fill="rgb(76, 151, 201)"/><path aria-label="feature: others_dlr_10; transform_shap: 0.0871528549563" role="graphics-symbol" aria-roledescription="bar" d="M375,254.7452417394794h15v145.2547582605206h-15Z" fill="rgb(80, 155, 203)"/><path aria-label="feature: momentum_roc_200; transform_shap: 0.0865973657785" role="graphics-symbol" aria-roledescription="bar" d="M392,255.6710570358944h15v144.3289429641056h-15Z" fill="rgb(85, 158, 204)"/><path aria-label="feature: volume_sma_em_5; transform_shap: 0.0860048835932" role="graphics-symbol" aria-roledescription="bar" d="M409,256.6585273447327h15v143.3414726552673h-15Z" fill="rgb(89, 161, 206)"/><path aria-label="feature: volatility_dcw; transform_shap: 0.0844268904776" role="graphics-symbol" aria-roledescription="bar" d="M426,259.2885158707073h15v140.71148412929273h-15Z" fill="rgb(93, 164, 208)"/><path aria-label="feature: momentum_stoch_rsi; transform_shap: 0.0838791583233" role="graphics-symbol" aria-roledescription="bar" d="M443,260.2014027945576h15v139.79859720544238h-15Z" fill="rgb(98, 167, 209)"/><path aria-label="feature: others_dr; transform_shap: 0.0830811757473" role="graphics-symbol" aria-roledescription="bar" d="M460,261.53137375442367h15v138.46862624557633h-15Z" fill="rgb(103, 170, 211)"/><path aria-label="feature: trend_vortex_ind_neg_100; transform_shap: 0.082660130028" role="graphics-symbol" aria-roledescription="bar" d="M477,262.2331166199835h15v137.7668833800165h-15Z" fill="rgb(108, 173, 212)"/><path aria-label="feature: momentum_rsi; transform_shap: 0.0790440674988" role="graphics-symbol" aria-roledescription="bar" d="M494,268.2598875019186h15v131.74011249808137h-15Z" fill="rgb(113, 176, 214)"/><path aria-label="feature: profit_loss_from_ordinary_activities_before_tax_qtr; transform_shap: 0.078447636292" role="graphics-symbol" aria-roledescription="bar" d="M511,269.25393951326663h15v130.74606048673337h-15Z" fill="rgb(118, 179, 216)"/><path aria-label="feature: volume_em; transform_shap: 0.0757563859387" role="graphics-symbol" aria-roledescription="bar" d="M528,273.73935676877943h15v126.26064323122057h-15Z" fill="rgb(123, 182, 217)"/><path aria-label="feature: trend_visual_ichimoku_a_100; transform_shap: 0.0750231705384" role="graphics-symbol" aria-roledescription="bar" d="M545,274.96138243598256h15v125.03861756401744h-15Z" fill="rgb(129, 185, 218)"/><path aria-label="feature: trend_aroon_up; transform_shap: 0.0738040907886" role="graphics-symbol" aria-roledescription="bar" d="M562,276.99318201896784h15v123.00681798103216h-15Z" fill="rgb(134, 188, 220)"/><path aria-label="feature: volatility_kch_100; transform_shap: 0.0705304610635" role="graphics-symbol" aria-roledescription="bar" d="M579,282.4492315608893h15v117.5507684391107h-15Z" fill="rgb(139, 191, 221)"/><path aria-label="feature: volume_fi; transform_shap: 0.0697956439674" role="graphics-symbol" aria-roledescription="bar" d="M596,283.6739267209695h15v116.32607327903048h-15Z" fill="rgb(144, 194, 222)"/><path aria-label="feature: trend_adx_5; transform_shap: 0.0695043413166" role="graphics-symbol" aria-roledescription="bar" d="M613,284.15943113899255h15v115.84056886100745h-15Z" fill="rgb(149, 196, 224)"/><path aria-label="feature: trend_ichimoku_conv_100; transform_shap: 0.0694827288164" role="graphics-symbol" aria-roledescription="bar" d="M630,284.1954519726231h15v115.80454802737688h-15Z" fill="rgb(154, 199, 225)"/><path aria-label="feature: others_dr_10; transform_shap: 0.0684667924121" role="graphics-symbol" aria-roledescription="bar" d="M647,285.88867931321346h15v114.11132068678654h-15Z" fill="rgb(159, 201, 227)"/><path aria-label="feature: others_dlr_100; transform_shap: 0.0646141809419" role="graphics-symbol" aria-roledescription="bar" d="M664,292.30969843012184h15v107.69030156987816h-15Z" fill="rgb(164, 204, 228)"/><path aria-label="feature: trend_kst_diff_5; transform_shap: 0.0636206044216" role="graphics-symbol" aria-roledescription="bar" d="M681,293.9656592972827h15v106.03434070271732h-15Z" fill="rgb(169, 206, 229)"/><path aria-label="feature: volume_vpt_5; transform_shap: 0.0608688707266" role="graphics-symbol" aria-roledescription="bar" d="M698,298.55188212233173h15v101.44811787766827h-15Z" fill="rgb(173, 208, 231)"/><path aria-label="feature: volume_mfi_200; transform_shap: 0.0588709209316" role="graphics-symbol" aria-roledescription="bar" d="M715,301.8817984473914h15v98.11820155260858h-15Z" fill="rgb(177, 210, 232)"/><path aria-label="feature: trend_aroon_ind_20; transform_shap: 0.0586101591102" role="graphics-symbol" aria-roledescription="bar" d="M732,302.3164014830011h15v97.68359851699893h-15Z" fill="rgb(182, 212, 233)"/><path aria-label="feature: momentum_wr_50; transform_shap: 0.0584045640916" role="graphics-symbol" aria-roledescription="bar" d="M749,302.65905984739135h15v97.34094015260865h-15Z" fill="rgb(186, 214, 235)"/><path aria-label="feature: volatility_bbw_200; transform_shap: 0.0581728336409" role="graphics-symbol" aria-roledescription="bar" d="M766,303.0452772652415h15v96.95472273475849h-15Z" fill="rgb(190, 216, 236)"/><path aria-label="feature: volatility_bbp_10; transform_shap: 0.0580872163414" role="graphics-symbol" aria-roledescription="bar" d="M783,303.187972764361h15v96.812027235639h-15Z" fill="rgb(194, 218, 237)"/><path aria-label="feature: trend_psar_down_indicator_50; transform_shap: 0.0577743838209" role="graphics-symbol" aria-roledescription="bar" d="M800,303.7093602984407h15v96.29063970155931h-15Z" fill="rgb(197, 220, 238)"/><path aria-label="feature: momentum_stoch_200; transform_shap: 0.0565612611797" role="graphics-symbol" aria-roledescription="bar" d="M817,305.73123136717254h15v94.26876863282746h-15Z" fill="rgb(200, 221, 240)"/><path aria-label="feature: trend_vortex_ind_neg_50; transform_shap: 0.0559947245704" role="graphics-symbol" aria-roledescription="bar" d="M834,306.67545904939294h15v93.32454095060706h-15Z" fill="rgb(204, 223, 241)"/></g><g class="mark-group role-title"><g transform="translate(-48.691025469581625,-35)"><path class="background" aria-hidden="true" d="M0,0h0v0h0Z" pointer-events="none"/><g><g class="mark-text role-title-text" role="graphics-symbol" aria-roledescription="title" aria-label="Title text 'Feature Importance Rating for LightGBM'" pointer-events="none"><text text-anchor="start" transform="translate(0,20)" font-family="sans-serif" font-size="25px" font-weight="bold" fill="#000" opacity="1">Feature Importance Rating for LightGBM</text></g></g><path class="foreground" aria-hidden="true" d="" pointer-events="none" display="none"/></g></g></g><path class="foreground" aria-hidden="true" d="" display="none"/></g></g></g></svg>